<svg xmlns="http://www.w3.org/2000/svg" width="56" height="56" viewBox="0 0 56 56" fill="none">
  <g clip-path="url(#clip0_463_2565)">
    <path d="M45.937 21.9495C49.2857 22.1837 52.1903 19.6588 52.4245 16.31C52.6587 12.9612 50.1338 10.0566 46.785 9.82244C43.4362 9.58827 40.5316 12.1132 40.2974 15.462C40.0633 18.8108 42.5882 21.7153 45.937 21.9495Z" fill="#9AE5AB"/>
    <path d="M43.8105 52.3598C38.0263 51.9553 33.664 46.9371 34.0685 41.1529L34.8009 30.6785C34.971 28.2461 37.0879 26.4059 39.5203 26.576L51.6473 27.424C54.0797 27.5941 55.9199 29.711 55.7498 32.1434L55.0173 42.6178C54.6129 48.402 49.5947 52.7642 43.8105 52.3598Z" fill="#9AE5AB"/>
    <path d="M37.2015 15.0812C36.3253 13.8972 35.8451 12.4017 35.9566 10.8073C36.204 7.26926 39.2672 4.60645 42.8052 4.85385C42.8867 4.85955 42.9565 4.86443 43.038 4.87013" stroke="#18193F" stroke-width="3.5" stroke-miterlimit="10" stroke-linecap="round" stroke-linejoin="round"/>
    <path d="M47.6836 7.67319C48.4575 8.81495 48.8736 10.2241 48.7694 11.7138C48.5399 14.9958 45.8713 17.5341 42.6572 17.6719" stroke="#18193F" stroke-width="3.5" stroke-miterlimit="10" stroke-linecap="round" stroke-linejoin="round"/>
    <path d="M47.3919 23.8867L47.904 23.9225C50.4761 24.1024 52.4137 26.3313 52.2338 28.9034L51.4533 40.0644C51.0562 45.7439 46.4586 50.1122 40.909 50.3673" stroke="#18193F" stroke-width="3.5" stroke-miterlimit="10" stroke-linecap="round" stroke-linejoin="round"/>
    <path d="M32.8034 47.3683C30.4661 45.1699 29.099 41.9751 29.3407 38.5185L30.1211 27.3574C30.301 24.7854 32.5299 22.8478 35.102 23.0277L42.2362 23.5266" stroke="#18193F" stroke-width="3.5" stroke-miterlimit="10" stroke-linecap="round" stroke-linejoin="round"/>
    <path d="M9.75179 12.589C11.3587 12.7014 12.7524 11.4898 12.8648 9.88288C12.9772 8.27597 11.7656 6.88223 10.1587 6.76986C8.5518 6.6575 7.15805 7.86906 7.04569 9.47597C6.93332 11.0829 8.14489 12.4766 9.75179 12.589Z" fill="#18193F"/>
    <path d="M21.39 13.4025C22.9969 13.5148 24.3906 12.3033 24.503 10.6964C24.6154 9.08945 23.4038 7.69571 21.7969 7.58334C20.19 7.47097 18.7962 8.68254 18.6839 10.2894C18.5715 11.8964 19.7831 13.2901 21.39 13.4025Z" fill="#18193F"/>
    <path d="M41.0368 33.4884C42.6437 33.6008 44.0375 32.3892 44.1498 30.7823C44.2622 29.1754 43.0506 27.7816 41.4437 27.6693C39.8368 27.5569 38.4431 28.7685 38.3307 30.3754C38.2184 31.9823 39.4299 33.376 41.0368 33.4884Z" fill="#18193F"/>
    <path d="M9.95525 9.6782L9.18713 9.62449C5.1021 9.33883 2.38316 13.7683 4.48807 17.2837L14.1467 33.3616L25.2837 18.5975C27.7069 15.3871 25.6087 10.7728 21.5935 10.492" stroke="#18193F" stroke-width="3.5" stroke-miterlimit="10" stroke-linecap="round" stroke-linejoin="round"/>
    <path d="M14.106 33.9445L14.0246 35.1083C13.5079 42.4986 19.0824 48.9114 26.4727 49.4282C33.863 49.945 40.2758 44.3704 40.7926 36.9801L41.1588 31.7429" stroke="#18193F" stroke-width="3.5" stroke-miterlimit="10" stroke-linecap="round" stroke-linejoin="round"/>
  </g>
  <defs>
    <clipPath id="clip0_463_2565">
      <rect width="56" height="56" fill="white"/>
    </clipPath>
  </defs>
</svg>