<svg xmlns="http://www.w3.org/2000/svg" width="56" height="56" viewBox="0 0 56 56" fill="none">
  <path d="M47.7133 31.6504L38.5796 31.0117C38.4085 30.9997 38.33 31.2199 38.473 31.3153C39.2414 31.8334 39.6761 32.7923 39.4393 33.8026C39.173 34.9348 38.0422 35.6522 36.8831 35.5711L27.8215 34.9375C26.6624 34.8564 25.6424 33.9887 25.5362 32.8316C25.4412 31.7981 26.0064 30.9079 26.8393 30.503C26.9943 30.4273 26.9472 30.1983 26.7761 30.1863L17.6424 29.5476C15.6616 29.4091 13.9444 30.9018 13.8059 32.8826L12.6796 48.9888C12.5412 50.9685 14.0339 52.6856 16.0147 52.8241L46.0868 54.927C48.0665 55.0654 49.7836 53.5727 49.9221 51.5919L51.0483 35.4869C51.1868 33.506 49.6941 31.7889 47.7133 31.6504Z" fill="#80ABFF"/>
  <path d="M17.1412 35.3584C18.1049 35.4258 18.8323 36.2626 18.7649 37.2262C18.6975 38.1899 17.8607 38.9173 16.8971 38.8499C15.9335 38.7825 15.206 37.9457 15.2734 36.9821C15.3408 36.0184 16.1776 35.291 17.1412 35.3584ZM22.2564 37.4704C22.189 38.434 22.9164 39.2708 23.88 39.3382C24.8437 39.4056 25.6805 38.6782 25.7479 37.7145C25.8152 36.7509 25.0878 35.9141 24.1242 35.8467C23.1605 35.7793 22.3238 36.5067 22.2564 37.4704ZM18.4394 41.8815C18.372 42.8452 19.0994 43.6819 20.063 43.7493C21.0267 43.8167 21.8635 43.0893 21.9309 42.1257C21.9982 41.162 21.2708 40.3252 20.3072 40.2578C19.3435 40.1905 18.5068 40.9179 18.4394 41.8815ZM25.4223 42.3698C25.3549 43.3335 26.0823 44.1702 27.046 44.2376C28.0096 44.305 28.8464 43.5776 28.9138 42.614C28.9812 41.6503 28.2538 40.8135 27.2901 40.7461C26.3265 40.6788 25.4897 41.4062 25.4223 42.3698ZM32.4053 42.8581C32.3379 43.8217 33.0653 44.6585 34.0289 44.7259C34.9926 44.7933 35.8294 44.0659 35.8967 43.1023C35.9641 42.1386 35.2367 41.3018 34.2731 41.2344C33.3094 41.1671 32.4727 41.8945 32.4053 42.8581ZM29.2393 37.9587C29.1719 38.9223 29.8993 39.7591 30.863 39.8265C31.8266 39.8939 32.6634 39.1665 32.7308 38.2028C32.7982 37.2392 32.0708 36.4024 31.1071 36.335C30.1435 36.2676 29.3067 36.995 29.2393 37.9587ZM36.2223 38.447C36.1549 39.4106 36.8823 40.2474 37.8459 40.3148C38.8096 40.3821 39.6464 39.6547 39.7138 38.6911C39.7811 37.7275 39.0537 36.8907 38.0901 36.8233C37.1264 36.7559 36.2897 37.4833 36.2223 38.447Z" fill="#18193F"/>
  <path d="M42.3086 18.3076L41.6913 27.1352" stroke="#18193F" stroke-width="3.5" stroke-miterlimit="10" stroke-linecap="round" stroke-linejoin="round"/>
  <path d="M15.2949 19.9521L15.9814 10.1341C16.1163 8.20559 17.7886 6.75187 19.7171 6.88673L39.5021 8.27023C41.4305 8.40508 42.8843 10.0774 42.7494 12.0059" stroke="#18193F" stroke-width="3.5" stroke-miterlimit="10" stroke-linecap="round" stroke-linejoin="round"/>
  <path d="M41.0495 49.3113L41.309 49.3295C43.2375 49.4643 44.9098 48.0106 45.0446 46.0822L46.1026 30.9524C46.2375 29.024 44.7837 27.3517 42.8553 27.2168L32.3809 26.4844" stroke="#18193F" stroke-width="3.5" stroke-miterlimit="10" stroke-linecap="round" stroke-linejoin="round"/>
  <path d="M9.4812 36.1914L8.96605 43.5584C8.8312 45.4869 10.2849 47.1592 12.2134 47.294L35.4771 48.9208" stroke="#18193F" stroke-width="3.5" stroke-miterlimit="10" stroke-linecap="round" stroke-linejoin="round"/>
  <path d="M24.2342 25.9141L13.7598 25.1816C11.8313 25.0468 10.159 26.5005 10.0242 28.429L9.88825 30.3726" stroke="#18193F" stroke-width="3.5" stroke-miterlimit="10" stroke-linecap="round" stroke-linejoin="round"/>
  <path d="M6.36987 30.5137L9.86135 30.7578" stroke="#18193F" stroke-width="3.5" stroke-miterlimit="10" stroke-linecap="round"/>
  <path d="M45.9399 33.2803L49.4314 33.5244" stroke="#18193F" stroke-width="3.5" stroke-miterlimit="10" stroke-linecap="round"/>
  <path d="M22.7202 14.1143L35.5223 15.0095" stroke="#18193F" stroke-width="3.5" stroke-miterlimit="10" stroke-linecap="round" stroke-linejoin="round"/>
  <path d="M22.3132 19.9316L35.1153 20.8268" stroke="#18193F" stroke-width="3.5" stroke-miterlimit="10" stroke-linecap="round" stroke-linejoin="round"/>
  <path d="M32.9628 26.5244C34.5701 26.6368 35.7813 28.0302 35.6689 29.6375C35.5566 31.2447 34.1632 32.456 32.5559 32.3436L23.2453 31.6925C21.6381 31.5801 20.4268 30.1867 20.5392 28.5795C20.6516 26.9722 22.045 25.761 23.6522 25.8734" stroke="#18193F" stroke-width="3.5" stroke-miterlimit="10" stroke-linecap="round" stroke-linejoin="round"/>
</svg>