<svg xmlns="http://www.w3.org/2000/svg" width="56" height="56" viewBox="0 0 56 56" fill="none">
  <g clip-path="url(#clip0_463_2485)">
    <path d="M53.3266 42.3679L50.9469 38.441C49.753 36.4194 49.0164 34.2488 48.8537 31.9211L48.5119 27.0331C47.9096 18.4208 40.7631 11.5526 32.2346 11.6811C23.1243 11.8504 16.0721 19.7115 16.7069 28.7893L17.0813 34.1429C17.244 36.4705 16.8249 38.8389 15.9158 40.8906L14.2221 45.1024C13.5132 46.6723 14.8073 48.453 16.553 48.331L51.4678 45.8895C53.2135 45.7674 54.2471 43.8239 53.3266 42.3679Z" fill="#FF9D80"/>
    <path d="M41.0934 46.3802C41.3701 50.3372 38.4475 53.6992 34.4905 53.9759C30.5335 54.2526 27.1715 51.3301 26.8948 47.373" fill="#FF9D80"/>
    <path d="M45.074 41.4238L46.2379 41.3424C47.9836 41.2203 49.0172 39.2768 48.0967 37.8208L45.8415 34.0022C44.6476 31.9805 44.0274 29.8018 43.8647 27.4742L43.531 22.7025C42.9369 14.2066 35.9149 7.44661 27.5028 7.56704C20.0299 7.73874 13.9707 13.0744 12.4561 19.8466" stroke="#18193F" stroke-width="3.5" stroke-linecap="round" stroke-linejoin="round"/>
    <path d="M12.2519 28.6328L12.3252 29.6802C12.4879 32.0079 12.0607 34.2599 11.2761 36.4198L9.57428 40.5152C8.8654 42.0851 10.1594 43.8659 11.9052 43.7438L38.7895 41.8639" stroke="#18193F" stroke-width="3.5" stroke-linecap="round" stroke-linejoin="round"/>
    <path d="M36.1696 42.8655C36.4463 46.8225 33.5237 50.1846 29.5667 50.4613C25.6097 50.738 22.2476 47.8154 21.9709 43.8584" stroke="#18193F" stroke-width="3.5" stroke-linecap="round" stroke-linejoin="round"/>
    <path d="M5.93606 21.9391L1.28076 22.2646" stroke="#18193F" stroke-width="3.5" stroke-linecap="round" stroke-linejoin="round"/>
    <path d="M7.53128 11.3028L3.71997 8.64551" stroke="#18193F" stroke-width="3.5" stroke-linecap="round" stroke-linejoin="round"/>
    <path d="M53.6529 18.6032L48.9976 18.9287" stroke="#18193F" stroke-width="3.5" stroke-linecap="round" stroke-linejoin="round"/>
    <path d="M49.342 5.45572L45.9376 8.61757" stroke="#18193F" stroke-width="3.5" stroke-linecap="round" stroke-linejoin="round"/>
    <path d="M22.5147 8.15052L22.3764 6.17202C22.2218 3.96075 23.9537 1.96842 26.1649 1.81379C28.3762 1.65917 30.3685 3.39107 30.5232 5.60234L30.6697 7.69723" stroke="#18193F" stroke-width="3.5" stroke-linecap="round" stroke-linejoin="round"/>
  </g>
  <defs>
    <clipPath id="clip0_463_2485">
      <rect width="56" height="56" fill="white"/>
    </clipPath>
  </defs>
</svg>